<svg xmlns="http://www.w3.org/2000/svg" width="1413" height="150" viewBox="0 0 1413 150">
  <g fill="none" fill-rule="evenodd">
    <path fill="#FFFFFF" d="M271.710305,107.967748 L265.363255,87.9366918 L235.84074,87.9366918 L229.377231,107.967748 L211.733597,107.967748 L240.906734,23.9421266 L261.578318,23.9421266 L290.751454,107.967748 L271.710305,107.967748 Z M250.165274,41.4110707 L239.625678,74.3691452 L261.636547,74.3691452 L251.213411,41.4110707 L250.165274,41.4110707 Z M382.884529,43.7402632 L365.823193,107.967748 L347.771951,107.967748 L336.300678,63.6548595 L335.252541,63.6548595 L323.897728,107.967748 L306.079405,107.967748 L288.959839,43.7402632 L306.137634,43.7402632 L315.687324,89.8000459 L316.735461,89.8000459 L327.973815,43.7402632 L344.161703,43.7402632 L355.458287,89.8000459 L356.506423,89.8000459 L366.056113,43.7402632 L382.884529,43.7402632 Z M418.185305,55.3279962 C410.324281,55.3279962 404.792448,60.8015987 404.21015,69.128462 L431.578163,69.128462 C431.228784,60.6269092 426.10456,55.3279962 418.185305,55.3279962 Z M431.927541,89.6835862 L447.707821,89.6835862 C445.145709,101.795387 434.082045,109.365263 418.359995,109.365263 C398.794777,109.365263 387.265274,97.0205428 387.265274,76.1742695 C387.265274,55.2697664 399.027697,42.3427477 418.127076,42.3427477 C437.051765,42.3427477 448.231889,54.3963192 448.231889,74.7767539 L448.231889,79.9592073 L404.15192,79.9592073 L404.15192,80.8326546 C404.38484,90.382344 409.974902,96.321785 418.825833,96.321785 C425.522262,96.321785 430.122417,93.9343626 431.927541,89.6835862 Z M458.726765,62.6067229 C458.726765,72.5057912 464.782666,78.4452322 477.243846,81.1820334 L488.889809,83.8023751 C494.538101,85.0252011 496.983753,86.946785 496.983753,90.0911949 C496.983753,94.2255117 492.441827,96.9623129 485.861858,96.9623129 C479.1072,96.9623129 474.972883,94.458431 473.691827,90.0911949 L457.15456,90.0911949 C458.319156,102.435915 468.567604,109.365263 485.512479,109.365263 C502.340896,109.365263 513.812169,100.98017 513.812169,88.1696111 C513.812169,78.5616918 508.222107,73.3210086 495.760927,70.5842073 L483.707355,67.9638657 C477.767914,66.62458 475.031113,64.7029962 475.031113,61.5585862 C475.031113,57.4824993 479.514809,54.745698 485.570709,54.745698 C491.859529,54.745698 495.760927,57.3078098 496.634374,61.4421266 L512.298194,61.4421266 C511.366517,49.1556359 501.758597,42.3427477 485.45425,42.3427477 C469.441051,42.3427477 458.726765,50.4366918 458.726765,62.6067229 Z M554.295399,95.5065676 C563.32102,95.5065676 568.503473,88.2860707 568.503473,75.8248906 C568.503473,63.4801701 563.26279,56.2014434 554.295399,56.2014434 C545.269778,56.2014434 540.087324,63.4801701 540.087324,75.8248906 C540.087324,88.3443005 545.211548,95.5065676 554.295399,95.5065676 Z M554.295399,109.365263 C534.555492,109.365263 522.67661,96.8458533 522.67661,75.8248906 C522.67661,55.0368471 534.730181,42.3427477 554.295399,42.3427477 C573.860616,42.3427477 585.914188,54.9786173 585.914188,75.8248906 C585.914188,96.8458533 574.035306,109.365263 554.295399,109.365263 Z M597.806579,107.967748 L614.751455,107.967748 L614.751455,69.3031514 C614.751455,62.1408844 619.46807,56.958431 626.106268,56.958431 C632.744467,56.958431 636.704095,60.8598285 636.704095,67.6727167 L636.704095,107.967748 L653.008442,107.967748 L653.008442,68.6626235 C653.008442,61.8497353 657.433908,56.958431 664.305026,56.958431 C671.467293,56.958431 675.019312,60.7433688 675.019312,68.3714744 L675.019312,107.967748 L691.964188,107.967748 L691.964188,63.8877788 C691.964188,50.6696111 683.986703,42.3427477 671.176144,42.3427477 C662.208753,42.3427477 654.813567,47.0593626 651.843846,54.2216297 L650.795709,54.2216297 C648.233598,46.7682136 642.061237,42.3427477 633.035616,42.3427477 C624.592293,42.3427477 617.895865,46.8846732 615.275523,54.2216297 L614.227386,54.2216297 L614.227386,43.7402632 L597.806579,43.7402632 L597.806579,107.967748 Z M734.252542,55.3279962 C726.391517,55.3279962 720.859685,60.8015987 720.277387,69.128462 L747.645399,69.128462 C747.29602,60.6269092 742.171797,55.3279962 734.252542,55.3279962 Z M747.994778,89.6835862 L763.775057,89.6835862 C761.212946,101.795387 750.149281,109.365263 734.427231,109.365263 C714.862014,109.365263 703.332511,97.0205428 703.332511,76.1742695 C703.332511,55.2697664 715.094933,42.3427477 734.194312,42.3427477 C753.119002,42.3427477 764.299126,54.3963192 764.299126,74.7767539 L764.299126,79.9592073 L720.219157,79.9592073 L720.219157,80.8326546 C720.452076,90.382344 726.042138,96.321785 734.89307,96.321785 C741.589498,96.321785 746.189654,93.9343626 747.994778,89.6835862 Z M805.203474,107.967748 L822.14835,107.967748 L822.14835,43.7402632 L805.203474,43.7402632 L805.203474,107.967748 Z M813.705027,34.7728719 C819.760927,34.7728719 823.720555,31.2208533 823.720555,26.2130893 C823.720555,21.1470955 819.760927,17.6533067 813.705027,17.6533067 C807.590896,17.6533067 803.689499,21.1470955 803.689499,26.2130893 C803.689499,31.2208533 807.590896,34.7728719 813.705027,34.7728719 Z M875.791517,21.7876235 C900.597418,21.7876235 916.144778,38.7324993 916.144778,65.9258223 C916.144778,93.1773751 900.655648,110.122251 875.791517,110.122251 C850.869157,110.122251 835.321797,93.1773751 835.321797,65.9258223 C835.321797,38.6742695 851.102076,21.7876235 875.791517,21.7876235 Z M875.791517,37.2185241 C862.165741,37.2185241 853.314809,48.3404185 853.314809,65.9258223 C853.314809,83.4529962 861.991052,94.6913502 875.791517,94.6913502 C889.475524,94.6913502 898.209996,83.4529962 898.209996,65.9258223 C898.209996,48.3404185 889.475524,37.2185241 875.791517,37.2185241 Z M927.105493,84.6175924 C927.746021,100.281412 940.731269,110.122251 960.762325,110.122251 C981.841517,110.122251 994.826766,99.757344 994.826766,82.8124682 C994.826766,69.76899 987.548039,62.4902632 970.661393,58.9382446 L960.529406,56.7837415 C950.688567,54.6874682 946.67071,51.7177477 946.67071,46.5352943 C946.67071,40.1300148 952.493691,36.0539278 961.286393,36.0539278 C969.787946,36.0539278 975.960306,40.4793937 976.775524,47.1175924 L993.312791,47.1175924 C992.788722,32.1525303 979.687014,21.7876235 961.169934,21.7876235 C941.779406,21.7876235 929.027076,32.2107601 929.027076,48.0492695 C929.027076,60.8598285 936.538722,68.8373129 951.853163,72.0399527 L962.800368,74.3691452 C973.107045,76.5818782 977.299592,79.6680583 977.299592,85.0252011 C977.299592,91.3722508 970.836083,95.7977167 961.694002,95.7977167 C951.794934,95.7977167 944.923816,91.4304806 944.108598,84.6175924 L927.105493,84.6175924 Z M1084.81885,37.8008223 L1085.40115,37.8008223 L1106.0145,107.967748 L1113.40969,107.967748 L1136.52692,23.9421266 L1128.25829,23.9421266 L1109.79944,95.5647974 L1109.27537,95.5647974 L1089.06962,23.9421266 L1081.15037,23.9421266 L1060.94462,95.5647974 L1060.42055,95.5647974 L1041.9617,23.9421266 L1033.69307,23.9421266 L1056.81031,107.967748 L1064.20549,107.967748 L1084.81885,37.8008223 Z M1168.54556,50.9607601 C1157.13251,50.9607601 1149.21326,59.4040831 1148.5145,72.3311018 L1187.5867,72.3311018 C1187.41201,59.4040831 1179.90037,50.9607601 1168.54556,50.9607601 Z M1186.82972,92.4786173 L1194.57428,92.4786173 C1191.4881,102.668835 1181.82195,109.015884 1168.66201,109.015884 C1151.42599,109.015884 1140.59524,96.4382446 1140.59524,76.640108 C1140.59524,56.958431 1151.54245,44.2061018 1168.60378,44.2061018 C1185.31574,44.2061018 1195.56419,56.0849837 1195.56419,75.2425924 L1195.56419,78.6199216 L1148.45627,78.6199216 L1148.45627,78.9693005 C1148.86388,93.1191452 1156.7249,102.202996 1168.8367,102.202996 C1177.74587,102.202996 1184.15115,98.6509775 1186.82972,92.4786173 Z M1234.91978,50.9607601 C1223.50674,50.9607601 1215.58748,59.4040831 1214.88872,72.3311018 L1253.96093,72.3311018 C1253.78624,59.4040831 1246.27459,50.9607601 1234.91978,50.9607601 Z M1253.20394,92.4786173 L1260.94851,92.4786173 C1257.86233,102.668835 1248.19618,109.015884 1235.03624,109.015884 C1217.80021,109.015884 1206.96947,96.4382446 1206.96947,76.640108 C1206.96947,56.958431 1217.91667,44.2061018 1234.97801,44.2061018 C1251.68997,44.2061018 1261.93841,56.0849837 1261.93841,75.2425924 L1261.93841,78.6199216 L1214.83049,78.6199216 L1214.83049,78.9693005 C1215.2381,93.1191452 1223.09913,102.202996 1235.21093,102.202996 C1244.12009,102.202996 1250.52537,98.6509775 1253.20394,92.4786173 Z M1285.39726,74.6020645 L1284.69851,74.6020645 L1284.69851,20.2736483 L1277.0704,20.2736483 L1277.0704,107.967748 L1284.69851,107.967748 L1284.69851,83.6276856 L1291.80254,77.0477167 L1317.07428,107.967748 L1326.85689,107.967748 L1297.56729,72.1564123 L1325.57584,45.2542384 L1316.02615,45.2542384 L1285.39726,74.6020645 Z M1338.66978,107.967748 L1346.29788,107.967748 L1346.29788,20.2736483 L1338.66978,20.2736483 L1338.66978,107.967748 Z M1368.99975,130.153307 C1379.2482,130.153307 1383.67366,126.07722 1389.26372,110.995698 L1413.66202,45.2542384 L1405.50984,45.2542384 L1386.58515,99.6408844 L1385.88639,99.6408844 L1366.90348,45.2542384 L1358.63484,45.2542384 L1382.15969,108.375356 L1380.87863,112.276754 C1377.79245,120.603617 1374.64804,123.515108 1368.88329,123.515108 C1367.95161,123.515108 1366.32118,123.456878 1365.44773,123.282189 L1365.44773,129.920387 C1366.43764,130.036847 1368.06807,130.153307 1368.99975,130.153307 Z"/>
    <g transform="translate(0 -1)">
      <polygon fill="#E3E9EF" points="57.251 71.735 127.527 72.111 76.867 104.817"/>
      <polygon fill="#FFFFFF" points="92.234 21.189 127.538 72.108 57.269 71.735"/>
      <polygon fill="#FFFFFF" points="157.588 24.54 173.818 42.374 146.319 42.374"/>
      <polygon fill="#C2CAD1" points="26.385 21.299 57.287 71.741 .176 21.561"/>
      <polygon fill="#C2CAD1" points="108.618 44.975 157.603 24.534 127.536 72.106"/>
      <polygon fill="#FFFFFF" points="57.269 71.735 76.862 104.812 41.053 149.783"/>
      <polygon fill="#E3E9EF" points="13.351 .005 92.236 21.187 57.274 71.731"/>
    </g>
  </g>
</svg>
